<?xml version="1.0" standalone="no"?>
<!DOCTYPE svg PUBLIC "-//W3C//DTD SVG 20010904//EN"
 "http://www.w3.org/TR/2001/REC-SVG-20010904/DTD/svg10.dtd">
<svg version="1.0" xmlns="http://www.w3.org/2000/svg"
 width="1392.000000pt" height="1392.000000pt" viewBox="0 0 1392.000000 1392.000000"
 preserveAspectRatio="xMidYMid meet">
<metadata>
Created by potrace 1.14, written by Peter Selinger 2001-2017
</metadata>
<g transform="translate(0.000000,1392.000000) scale(0.100000,-0.100000)"
fill="#000000" stroke="none">
<path d="M6628 13915 c-2 -1 -55 -6 -119 -9 -64 -4 -129 -9 -145 -11 -16 -1
-63 -6 -104 -10 -41 -4 -85 -9 -98 -10 -12 -2 -50 -6 -85 -9 -34 -4 -84 -11
-112 -16 -27 -5 -68 -12 -90 -15 -23 -3 -50 -7 -62 -9 -11 -3 -38 -7 -59 -11
-73 -11 -99 -16 -114 -20 -8 -2 -31 -7 -50 -10 -19 -3 -55 -11 -80 -16 -25 -6
-56 -13 -70 -15 -187 -36 -597 -156 -850 -247 -142 -52 -381 -148 -418 -169
-18 -10 -37 -18 -43 -18 -16 0 -464 -222 -467 -231 -2 -5 -7 -9 -12 -9 -9 0
-181 -96 -300 -168 -75 -45 -419 -273 -475 -315 -348 -259 -575 -455 -845
-727 -174 -175 -230 -235 -320 -340 -30 -36 -57 -67 -60 -70 -50 -45 -430
-548 -485 -642 -39 -66 -110 -174 -117 -176 -4 -2 -8 -9 -8 -16 0 -8 -8 -24
-18 -37 -11 -13 -30 -44 -44 -69 -14 -25 -49 -85 -78 -135 -29 -49 -97 -177
-151 -284 -86 -170 -117 -236 -199 -426 -28 -64 -76 -185 -100 -250 -12 -33
-30 -80 -40 -105 -103 -260 -275 -919 -315 -1210 -3 -25 -8 -52 -10 -60 -2 -8
-7 -37 -10 -65 -3 -27 -7 -61 -10 -74 -2 -13 -7 -49 -10 -80 -4 -31 -8 -66
-10 -78 -2 -12 -6 -57 -10 -100 -4 -43 -8 -88 -10 -101 -25 -156 -25 -1015 -1
-1172 2 -14 7 -61 11 -105 3 -44 8 -93 10 -110 3 -16 11 -82 20 -145 8 -63 16
-124 19 -135 2 -11 7 -42 11 -70 5 -40 53 -290 70 -366 82 -383 234 -850 405
-1249 62 -143 216 -461 279 -573 140 -250 275 -466 420 -672 80 -113 233 -317
256 -341 5 -6 21 -26 35 -44 14 -18 30 -38 35 -44 6 -6 53 -60 105 -121 261
-302 639 -666 914 -880 22 -16 51 -39 65 -51 138 -112 488 -354 681 -470 83
-50 102 -62 225 -131 93 -53 458 -234 575 -285 306 -136 804 -308 1050 -364
46 -10 43 -9 135 -33 76 -19 217 -50 260 -57 11 -1 31 -5 45 -8 74 -16 81 -17
300 -50 91 -13 197 -28 235 -31 39 -4 84 -9 100 -10 206 -21 387 -29 675 -29
245 0 469 8 560 19 14 1 62 6 107 9 45 4 90 8 100 10 10 2 49 7 86 11 37 3 76
8 85 10 9 1 40 6 67 9 28 4 61 8 75 11 39 7 93 16 115 20 11 1 67 12 125 23
58 12 119 23 135 26 73 13 414 101 550 142 498 150 1051 388 1450 623 17 10
75 44 130 77 55 32 105 62 110 66 6 4 66 45 135 90 775 509 1452 1184 1970
1963 106 160 290 465 290 481 0 3 8 18 19 32 19 27 172 329 209 412 11 25 34
77 52 115 100 219 245 619 316 870 25 89 113 439 119 473 3 18 12 64 20 102 8
38 17 84 20 102 3 18 10 58 15 88 5 30 12 73 15 95 4 22 10 67 15 100 5 33 12
87 16 120 3 33 8 68 10 78 2 10 6 53 9 95 4 42 8 88 10 101 25 154 25 925 0
1166 -3 22 -7 65 -10 95 -7 83 -15 152 -20 180 -2 14 -7 52 -11 85 -3 33 -8
69 -10 80 -2 11 -7 40 -10 65 -5 38 -54 303 -68 365 -33 150 -57 257 -66 285
-5 19 -28 100 -50 180 -44 157 -154 488 -177 533 -7 15 -11 27 -7 27 4 0 2 6
-3 13 -6 6 -20 39 -32 72 -22 59 -40 102 -66 160 -8 17 -28 64 -46 105 -45
105 -169 358 -229 465 -27 50 -53 97 -57 105 -29 64 -162 279 -296 480 -74
111 -307 432 -327 450 -3 3 -25 30 -50 60 -25 30 -47 57 -50 60 -3 3 -16 18
-28 34 -152 199 -549 594 -842 841 -52 44 -97 83 -100 86 -10 12 -338 257
-381 286 -24 15 -46 31 -49 34 -8 10 -257 171 -365 236 -280 167 -575 318
-860 437 -88 37 -169 71 -180 76 -130 56 -611 215 -710 235 -6 2 -45 12 -86
23 -42 12 -86 23 -100 26 -13 3 -34 7 -46 10 -30 8 -43 10 -154 35 -105 22
-117 24 -244 46 -148 26 -173 30 -255 40 -30 4 -63 9 -73 11 -10 2 -48 6 -85
9 -37 4 -78 8 -92 10 -14 2 -61 7 -105 11 -44 3 -98 8 -120 10 -47 5 -802 13
-807 9z"/>
</g>
</svg>
